<svg xmlns="http://www.w3.org/2000/svg" width="15.653" height="11.23" viewBox="0 0 15.653 11.23">
  <path id="Icon" d="M7.827,11.23a.32.32,0,0,1-.227-.095L5.552,9.07a.322.322,0,0,1-.1-.235A.326.326,0,0,1,5.562,8.6a3.51,3.51,0,0,1,4.53,0,.322.322,0,0,1,.01.468L8.055,11.135A.32.32,0,0,1,7.827,11.23Zm3.6-3.622A.316.316,0,0,1,11.2,7.52a5.031,5.031,0,0,0-6.75,0,.317.317,0,0,1-.444-.006L2.826,6.32a.33.33,0,0,1-.1-.236.334.334,0,0,1,.1-.234,7.343,7.343,0,0,1,10,0,.329.329,0,0,1,0,.47L11.647,7.514A.314.314,0,0,1,11.423,7.607Zm2.727-2.75a.314.314,0,0,1-.221-.09,8.86,8.86,0,0,0-12.2,0,.316.316,0,0,1-.445,0L.1,3.57A.332.332,0,0,1,0,3.335.326.326,0,0,1,.1,3.1a11.175,11.175,0,0,1,15.456,0,.329.329,0,0,1,0,.467l-1.185,1.2A.312.312,0,0,1,14.149,4.858Z" fill="#fff"/>
</svg>
