<svg xmlns="http://www.w3.org/2000/svg" width="17.355" height="10.89" viewBox="0 0 17.355 10.89">
  <path id="Icon" d="M16.334,10.89H15.314a1.023,1.023,0,0,1-1.022-1.022V1.022A1.023,1.023,0,0,1,15.314,0h1.021a1.022,1.022,0,0,1,1.021,1.022V9.868A1.022,1.022,0,0,1,16.334,10.89Zm-14.292,0H1.021A1.023,1.023,0,0,1,0,9.868V7.827A1.023,1.023,0,0,1,1.021,6.806H2.042A1.022,1.022,0,0,1,3.063,7.827V9.868A1.022,1.022,0,0,1,2.042,10.89Zm9.545,0H10.526a1,1,0,0,1-1-1v-6.5a1,1,0,0,1,1-1h1.062a1,1,0,0,1,1,1v6.5A1,1,0,0,1,11.587,10.886Zm-4.757,0H5.768a1,1,0,0,1-1-1V5.761a1,1,0,0,1,1-1H6.83a1,1,0,0,1,1,1V9.887A1,1,0,0,1,6.83,10.886Z" fill="#fff"/>
</svg>
